<svg width="400" height="400" viewBox="0 0 400 400" fill="none" xmlns="http://www.w3.org/2000/svg">
<rect width="400" height="400" fill="#DDDDDD"/>
<path d="M118 166.765H123.319L133.628 183.373L143.937 166.765H149.256V196.448H142.58V180.168L135.646 191.567H131.61L124.677 180.168V196.448H118V166.765Z" fill="white"/>
<path d="M161.219 166.765V196.448H154.543V166.765H161.219Z" fill="white"/>
<path d="M166.508 166.765H172.085L187.016 184.611V166.401H193.693V196.084H188.116L173.185 178.237V196.448H166.508V166.765Z" fill="white"/>
<path d="M213.641 166C216.185 166 218.496 166.437 220.575 167.311C222.678 168.185 224.427 169.375 225.821 170.88C227.239 172.386 228.242 174.073 228.829 175.943H221.492C220.832 174.802 219.817 173.879 218.447 173.175C217.102 172.446 215.549 172.082 213.788 172.082C212.003 172.082 210.388 172.495 208.945 173.321C207.502 174.122 206.365 175.251 205.534 176.708C204.727 178.14 204.323 179.767 204.323 181.588C204.323 183.409 204.727 185.06 205.534 186.541C206.365 187.998 207.502 189.139 208.945 189.965C210.388 190.79 212.003 191.203 213.788 191.203C215.28 191.203 216.637 190.936 217.86 190.402C219.083 189.868 220.074 189.164 220.832 188.29C221.614 187.391 222.128 186.444 222.372 185.449H213.238V179.84H229.49V181.588C229.49 184.55 228.793 187.221 227.398 189.601C226.029 191.956 224.133 193.801 221.712 195.137C219.315 196.496 216.625 197.176 213.641 197.176C210.609 197.176 207.869 196.496 205.424 195.137C203.002 193.801 201.095 191.956 199.701 189.601C198.331 187.221 197.646 184.55 197.646 181.588C197.646 178.626 198.331 175.967 199.701 173.612C201.095 171.232 203.002 169.375 205.424 168.04C207.869 166.68 210.609 166 213.641 166Z" fill="white"/>
<path d="M240.144 166.765V190.584H255.075V196.448H233.467V166.765H240.144Z" fill="white"/>
<path d="M258.438 166.765H280.67V172.519H265.115V178.565H279.386V184.32H265.115V190.693H281V196.448H258.438V166.765Z" fill="white"/>
<path d="M132.725 202.589H138.044L148.353 219.197L158.661 202.589H163.981V232.272H157.304V215.991L150.37 227.391H146.335L139.401 215.991V232.272H132.725V202.589Z" fill="white"/>
<path d="M184.088 233C181.031 233 178.267 232.32 175.797 230.96C173.351 229.625 171.432 227.78 170.037 225.424C168.643 223.045 167.946 220.374 167.946 217.412C167.946 214.45 168.643 211.791 170.037 209.436C171.432 207.056 173.351 205.199 175.797 203.863C178.267 202.504 181.031 201.824 184.088 201.824C187.145 201.824 189.897 202.504 192.343 203.863C194.813 205.199 196.745 207.056 198.139 209.436C199.533 211.791 200.23 214.45 200.23 217.412C200.23 220.374 199.533 223.045 198.139 225.424C196.745 227.78 194.813 229.625 192.343 230.96C189.897 232.32 187.145 233 184.088 233ZM184.088 227.027C185.874 227.027 187.488 226.614 188.931 225.789C190.374 224.963 191.499 223.822 192.306 222.365C193.137 220.884 193.553 219.233 193.553 217.412C193.553 215.567 193.137 213.915 192.306 212.459C191.499 211.002 190.374 209.861 188.931 209.035C187.488 208.21 185.874 207.797 184.088 207.797C182.303 207.797 180.689 208.21 179.246 209.035C177.803 209.861 176.665 211.002 175.834 212.459C175.027 213.915 174.623 215.567 174.623 217.412C174.623 219.233 175.027 220.884 175.834 222.365C176.665 223.822 177.803 224.963 179.246 225.789C180.689 226.614 182.303 227.027 184.088 227.027Z" fill="white"/>
<path d="M219.019 233C215.961 233 213.198 232.32 210.728 230.96C208.282 229.625 206.362 227.78 204.968 225.424C203.574 223.045 202.877 220.374 202.877 217.412C202.877 214.45 203.574 211.791 204.968 209.436C206.362 207.056 208.282 205.199 210.728 203.863C213.198 202.504 215.961 201.824 219.019 201.824C222.076 201.824 224.827 202.504 227.273 203.863C229.743 205.199 231.675 207.056 233.069 209.436C234.463 211.791 235.16 214.45 235.16 217.412C235.16 220.374 234.463 223.045 233.069 225.424C231.675 227.78 229.743 229.625 227.273 230.96C224.827 232.32 222.076 233 219.019 233ZM219.019 227.027C220.804 227.027 222.418 226.614 223.861 225.789C225.304 224.963 226.429 223.822 227.236 222.365C228.068 220.884 228.484 219.233 228.484 217.412C228.484 215.567 228.068 213.915 227.236 212.459C226.429 211.002 225.304 209.861 223.861 209.035C222.418 208.21 220.804 207.797 219.019 207.797C217.233 207.797 215.619 208.21 214.176 209.035C212.733 209.861 211.596 211.002 210.764 212.459C209.957 213.915 209.554 215.567 209.554 217.412C209.554 219.233 209.957 220.884 210.764 222.365C211.596 223.822 212.733 224.963 214.176 225.789C215.619 226.614 217.233 227.027 219.019 227.027Z" fill="white"/>
<path d="M239.128 202.589H250.721C253.973 202.589 256.811 203.22 259.232 204.482C261.653 205.721 263.512 207.469 264.808 209.727C266.104 211.961 266.752 214.535 266.752 217.448C266.752 220.362 266.104 222.948 264.808 225.206C263.512 227.44 261.653 229.176 259.232 230.414C256.811 231.652 253.973 232.272 250.721 232.272H239.128V202.589ZM250.831 226.408C253.717 226.408 255.979 225.631 257.618 224.077C259.256 222.499 260.076 220.289 260.076 217.448C260.076 214.607 259.256 212.398 257.618 210.82C255.979 209.241 253.717 208.452 250.831 208.452H245.805V226.408H250.831Z" fill="white"/>
</svg>
