<svg width="14" height="15" viewBox="0 0 14 15" fill="none" xmlns="http://www.w3.org/2000/svg">
<g id="Vector">
<path d="M6.99967 0.833374C3.31967 0.833374 0.333008 3.82004 0.333008 7.50004C0.333008 11.18 3.31967 14.1667 6.99967 14.1667C10.6797 14.1667 13.6663 11.18 13.6663 7.50004C13.6663 3.82004 10.6797 0.833374 6.99967 0.833374ZM3.89967 11.8334C4.77301 11.2067 5.83967 10.8334 6.99967 10.8334C8.15967 10.8334 9.22634 11.2067 10.0997 11.8334C9.22634 12.46 8.15967 12.8334 6.99967 12.8334C5.83967 12.8334 4.77301 12.46 3.89967 11.8334ZM11.093 10.9134C9.96634 10.0334 8.54634 9.50004 6.99967 9.50004C5.45301 9.50004 4.03301 10.0334 2.90634 10.9134C2.13301 9.98671 1.66634 8.80004 1.66634 7.50004C1.66634 4.55337 4.05301 2.16671 6.99967 2.16671C9.94634 2.16671 12.333 4.55337 12.333 7.50004C12.333 8.80004 11.8663 9.98671 11.093 10.9134Z" fill="#999999"/>
<path d="M6.99967 3.50004C5.71301 3.50004 4.66634 4.54671 4.66634 5.83337C4.66634 7.12004 5.71301 8.16671 6.99967 8.16671C8.28634 8.16671 9.33301 7.12004 9.33301 5.83337C9.33301 4.54671 8.28634 3.50004 6.99967 3.50004ZM6.99967 6.83337C6.44634 6.83337 5.99967 6.38671 5.99967 5.83337C5.99967 5.28004 6.44634 4.83337 6.99967 4.83337C7.55301 4.83337 7.99967 5.28004 7.99967 5.83337C7.99967 6.38671 7.55301 6.83337 6.99967 6.83337Z" fill="#999999"/>
</g>
</svg>
