<svg width="15" height="15" viewBox="0 0 15 15" fill="none" xmlns="http://www.w3.org/2000/svg">
<g id="format_list_bulleted">
<path id="Vector" d="M2.97949 6.625C2.49533 6.625 2.10449 7.01583 2.10449 7.5C2.10449 7.98417 2.49533 8.375 2.97949 8.375C3.46366 8.375 3.85449 7.98417 3.85449 7.5C3.85449 7.01583 3.46366 6.625 2.97949 6.625ZM2.97949 3.125C2.49533 3.125 2.10449 3.51583 2.10449 4C2.10449 4.48417 2.49533 4.875 2.97949 4.875C3.46366 4.875 3.85449 4.48417 3.85449 4C3.85449 3.51583 3.46366 3.125 2.97949 3.125ZM2.97949 10.125C2.49533 10.125 2.10449 10.5217 2.10449 11C2.10449 11.4783 2.50116 11.875 2.97949 11.875C3.45783 11.875 3.85449 11.4783 3.85449 11C3.85449 10.5217 3.46366 10.125 2.97949 10.125ZM4.72949 11.5833H12.8962V10.4167H4.72949V11.5833ZM4.72949 8.08333H12.8962V6.91667H4.72949V8.08333ZM4.72949 3.41667V4.58333H12.8962V3.41667H4.72949Z" fill="white"/>
</g>
</svg>
