<svg width="10" height="10" viewBox="0 0 10 10" fill="none" xmlns="http://www.w3.org/2000/svg">
<path id="Vector" d="M9 1.5H7.415L6.5 0.5H3.5L2.585 1.5H1C0.45 1.5 0 1.95 0 2.5V8.5C0 9.05 0.45 9.5 1 9.5H9C9.55 9.5 10 9.05 10 8.5V2.5C10 1.95 9.55 1.5 9 1.5ZM9 8.5H1V2.5H3.025L3.94 1.5H6.06L6.975 2.5H9V8.5ZM5 3C3.62 3 2.5 4.12 2.5 5.5C2.5 6.88 3.62 8 5 8C6.38 8 7.5 6.88 7.5 5.5C7.5 4.12 6.38 3 5 3ZM5 7C4.175 7 3.5 6.325 3.5 5.5C3.5 4.675 4.175 4 5 4C5.825 4 6.5 4.675 6.5 5.5C6.5 6.325 5.825 7 5 7Z" fill="white"/>
</svg>
