<svg width="18" height="18" viewBox="0 0 18 18" fill="none" xmlns="http://www.w3.org/2000/svg">
<path d="M9 1.5C4.86 1.5 1.5 4.86 1.5 9C1.5 13.14 4.86 16.5 9 16.5C13.14 16.5 16.5 13.14 16.5 9C16.5 4.86 13.14 1.5 9 1.5ZM9 15C5.6925 15 3 12.3075 3 9C3 5.6925 5.6925 3 9 3C12.3075 3 15 5.6925 15 9C15 12.3075 12.3075 15 9 15ZM9.6675 8.325C8.3325 7.8825 7.6875 7.605 7.6875 6.9C7.6875 6.135 8.52 5.8575 9.045 5.8575C10.0275 5.8575 10.3875 6.6 10.47 6.8625L11.655 6.36C11.5425 6.03 11.04 4.9275 9.66 4.6875V3.75H8.3475V4.695C6.3975 5.115 6.3825 6.8325 6.3825 6.915C6.3825 8.6175 8.07 9.0975 8.895 9.3975C10.08 9.8175 10.605 10.2 10.605 10.92C10.605 11.7675 9.8175 12.1275 9.12 12.1275C7.755 12.1275 7.365 10.725 7.32 10.56L6.075 11.0625C6.5475 12.705 7.785 13.1475 8.34 13.2825V14.25H9.6525V13.32C10.0425 13.2525 11.9175 12.8775 11.9175 10.905C11.925 9.8625 11.4675 8.9475 9.6675 8.325Z" fill="black"/>
</svg>
