<svg xmlns="http://www.w3.org/2000/svg" width="20" height="21" viewBox="0 0 20 21" fill="none">
  <path d="M11.6826 7.3334L11.5319 6.90725L11.6074 6.45743C11.7462 5.63033 12.4668 5 13.3332 5C14.1996 5 14.9202 5.63033 15.0589 6.45743L15.1344 6.90725L14.9838 7.3334C14.7432 8.01411 14.094 8.5 13.3332 8.5C12.5724 8.5 11.9232 8.01411 11.6826 7.3334ZM8.39228 12.2908L8.46774 12.7406L8.31711 13.1667C8.07651 13.8474 7.42729 14.3333 6.6665 14.3333C5.90572 14.3333 5.2565 13.8474 5.0159 13.1667L4.86527 12.7406L4.94073 12.2908C5.07948 11.4637 5.80012 10.8333 6.6665 10.8333C7.53289 10.8333 8.25353 11.4637 8.39228 12.2908ZM11.6074 18.7092L11.5319 18.2594L11.6826 17.8332C11.9232 17.1526 12.5724 16.6667 13.3332 16.6667C14.094 16.6667 14.7432 17.1526 14.9838 17.8332L15.1344 18.2594L15.0589 18.7092C14.9202 19.5363 14.1996 20.1667 13.3332 20.1667C12.4668 20.1667 11.7462 19.5363 11.6074 18.7092Z" fill="white" stroke="black" stroke-width="1.5"/>
</svg>