<svg width="13" height="15" viewBox="0 0 13 15" fill="none" xmlns="http://www.w3.org/2000/svg">
<path id="Vector" d="M10.875 8.75V11.25H9.625V8.75H10.875ZM3.375 8.75V11.25H2.75C2.40625 11.25 2.125 10.9688 2.125 10.625V8.75H3.375ZM6.5 0.625C3.39375 0.625 0.875 3.14375 0.875 6.25V10.625C0.875 11.6625 1.7125 12.5 2.75 12.5H4.625V7.5H2.125V6.25C2.125 3.83125 4.08125 1.875 6.5 1.875C8.91875 1.875 10.875 3.83125 10.875 6.25V7.5H8.375V12.5H10.875V13.125H6.5V14.375H10.25C11.2875 14.375 12.125 13.5375 12.125 12.5V6.25C12.125 3.14375 9.60625 0.625 6.5 0.625Z" fill="black"/>
</svg>
