<svg width="15" height="15" viewBox="0 0 15 15" fill="none" xmlns="http://www.w3.org/2000/svg">
<g id="heart / outline">
<path id="Vector" d="M12.7861 2.86958C12.4807 2.55427 12.1181 2.30414 11.7189 2.13349C11.3198 1.96284 10.892 1.875 10.4599 1.875C10.0279 1.875 9.60007 1.96284 9.20093 2.13349C8.80179 2.30414 8.43915 2.55427 8.13372 2.86958L7.49984 3.52366L6.86596 2.86958C6.24902 2.23297 5.41225 1.87533 4.53976 1.87533C3.66726 1.87533 2.8305 2.23297 2.21355 2.86958C1.5966 3.50619 1.25 4.36962 1.25 5.26992C1.25 6.17022 1.5966 7.03364 2.21355 7.67025L2.84742 8.32433L7.49984 13.125L12.1523 8.32433L12.7861 7.67025C13.0917 7.35509 13.3341 6.98089 13.4995 6.56903C13.6649 6.15718 13.75 5.71573 13.75 5.26992C13.75 4.8241 13.6649 4.38266 13.4995 3.9708C13.3341 3.55894 13.0917 3.18475 12.7861 2.86958Z" fill="white" stroke="#333333" stroke-width="1.5" stroke-linecap="round" stroke-linejoin="round"/>
</g>
</svg>
