<svg width="11" height="11" viewBox="0 0 11 11" fill="none" xmlns="http://www.w3.org/2000/svg">
<g id="Vector">
<path d="M9.49375 7.4125C8.44375 6.875 7.08125 6.4375 5.5 6.4375C3.91875 6.4375 2.55625 6.875 1.50625 7.4125C0.88125 7.73125 0.5 8.375 0.5 9.075V10.8125H10.5V9.075C10.5 8.375 10.1187 7.73125 9.49375 7.4125ZM9.25 9.5625H1.75V9.075C1.75 8.8375 1.875 8.625 2.075 8.525C2.81875 8.14375 4.01875 7.6875 5.5 7.6875C6.98125 7.6875 8.18125 8.14375 8.925 8.525C9.125 8.625 9.25 8.8375 9.25 9.075V9.5625Z" fill="black"/>
<path d="M5.5 5.8125C6.88125 5.8125 8 4.69375 8 3.3125C8 2.45625 8 1.125 8 1.125C8 0.60625 7.58125 0.1875 7.0625 0.1875C6.7375 0.1875 6.45 0.35625 6.28125 0.60625C6.1125 0.35625 5.825 0.1875 5.5 0.1875C5.175 0.1875 4.8875 0.35625 4.71875 0.60625C4.55 0.35625 4.2625 0.1875 3.9375 0.1875C3.41875 0.1875 3 0.60625 3 1.125C3 1.125 3 2.45 3 3.3125C3 4.69375 4.11875 5.8125 5.5 5.8125ZM4.25 1.75H6.75V3.3125C6.75 4 6.1875 4.5625 5.5 4.5625C4.8125 4.5625 4.25 4 4.25 3.3125V1.75Z" fill="black"/>
</g>
</svg>
