<svg width="18" height="18" viewBox="0 0 18 18" fill="none" xmlns="http://www.w3.org/2000/svg">
<g id="heart / outline">
<path id="Vector" d="M15.3434 3.4435C14.9768 3.06512 14.5417 2.76497 14.0627 2.56019C13.5837 2.3554 13.0704 2.25 12.5519 2.25C12.0335 2.25 11.5201 2.3554 11.0411 2.56019C10.5621 2.76497 10.127 3.06512 9.76046 3.4435L8.99981 4.22839L8.23916 3.4435C7.49882 2.67957 6.4947 2.2504 5.44771 2.2504C4.40071 2.2504 3.39659 2.67957 2.65626 3.4435C1.91592 4.20743 1.5 5.24354 1.5 6.3239C1.5 7.40426 1.91592 8.44037 2.65626 9.2043L3.41691 9.98919L8.99981 15.75L14.5827 9.98919L15.3434 9.2043C15.71 8.82611 16.0009 8.37707 16.1994 7.88284C16.3979 7.38861 16.5 6.85888 16.5 6.3239C16.5 5.78892 16.3979 5.25919 16.1994 4.76496C16.0009 4.27073 15.71 3.82169 15.3434 3.4435V3.4435Z" fill="#333333" fill-opacity="0.4" stroke="white" stroke-linecap="round" stroke-linejoin="round"/>
</g>
</svg>
