<svg width="30" height="12" viewBox="0 0 30 12" fill="none" xmlns="http://www.w3.org/2000/svg">
<g clip-path="url(#clip0_525_951)">
<path d="M24.3233 0C27.4579 0 30 2.68686 30 6C30 9.31314 27.4579 12 24.3233 12H5.67669C2.54208 12 0 9.31314 0 6C0 2.68686 2.54208 0 5.67669 0H24.3233Z" fill="#00DE5A"/>
<path d="M5.68598 10.3498C3.40944 10.3498 1.56396 8.40239 1.56396 6.00011C1.56396 3.59782 3.40944 1.65039 5.68598 1.65039C7.96251 1.65039 9.80801 3.59782 9.80801 6.00011C9.80909 8.40239 7.96359 10.3498 5.68598 10.3498ZM6.48201 3.82411V6.21612L4.88888 3.82411H3.62496V8.17383H4.89104V5.78183L6.48417 8.17383H7.74808V3.82411H6.48201Z" fill="black"/>
<path d="M26.0913 3.23698L24.8696 6.19241L23.5202 3.23698H22.2877L24.3303 7.43126L23.5093 9.37412H24.6736L27.2545 3.23698H26.0913ZM20.5689 7.93984H21.6725V3.23584H20.5689V3.62212C20.1898 3.29984 19.761 3.13184 19.2411 3.13184C17.9859 3.13184 17.0025 4.21984 17.0025 5.58669C17.0025 6.95355 17.9859 8.04155 19.2411 8.04155C19.761 8.04155 20.1898 7.87355 20.5689 7.55126V7.93984ZM19.4014 7.08955C18.6628 7.08955 18.1072 6.44498 18.1072 5.58898C18.1072 4.73298 18.6639 4.08841 19.4014 4.08841C20.1389 4.08841 20.6956 4.73298 20.6956 5.58898C20.6967 6.44384 20.14 7.08955 19.4014 7.08955ZM12.9021 7.57641C13.2736 7.88384 13.6895 8.04384 14.1909 8.04384C15.4462 8.04384 16.4296 6.95584 16.4296 5.58898C16.4296 4.22212 15.4462 3.13412 14.1909 3.13412C13.6711 3.13412 13.2422 3.30212 12.8631 3.62441V3.23812H11.7595V9.37526H12.901V7.57641H12.9021ZM12.7364 5.58898C12.7364 4.73298 13.2931 4.08841 14.0306 4.08841C14.7682 4.08841 15.3249 4.73298 15.3249 5.58898C15.3249 6.44498 14.7682 7.08955 14.0306 7.08955C13.2931 7.08955 12.7364 6.44384 12.7364 5.58898Z" fill="black"/>
</g>
<defs>
<clipPath id="clip0_525_951">
<rect width="30" height="12" fill="white"/>
</clipPath>
</defs>
</svg>
