<svg width="10" height="10" viewBox="0 0 10 10" fill="none" xmlns="http://www.w3.org/2000/svg">
<path id="Vector" d="M8.66699 1.33329V6.83329H3.16699V1.33329H8.66699ZM8.66699 0.416626H3.16699C2.66283 0.416626 2.25033 0.829126 2.25033 1.33329V6.83329C2.25033 7.33746 2.66283 7.74996 3.16699 7.74996H8.66699C9.17116 7.74996 9.58366 7.33746 9.58366 6.83329V1.33329C9.58366 0.829126 9.17116 0.416626 8.66699 0.416626ZM4.77116 4.84871L5.54574 5.88454L6.68241 4.46371L8.20866 6.37496H3.62533L4.77116 4.84871ZM0.416992 2.24996V8.66663C0.416992 9.17079 0.829492 9.58329 1.33366 9.58329H7.75033V8.66663H1.33366V2.24996H0.416992Z" fill="#FF5816"/>
</svg>
