<svg width="13" height="11" viewBox="0 0 13 11" fill="none" xmlns="http://www.w3.org/2000/svg">
<g id="Vector">
<path d="M10.25 4.875C10.25 5.29375 10.25 5.70625 10.25 6.125C11 6.125 11.975 6.125 12.75 6.125C12.75 5.70625 12.75 5.29375 12.75 4.875C11.975 4.875 11 4.875 10.25 4.875Z" fill="black"/>
<path d="M9 9.00625C9.6 9.45 10.3813 10.0375 11 10.5C11.25 10.1687 11.5 9.83125 11.75 9.5C11.1312 9.0375 10.35 8.45 9.75 8C9.5 8.3375 9.25 8.675 9 9.00625Z" fill="black"/>
<path d="M11.75 1.5C11.5 1.16875 11.25 0.83125 11 0.5C10.3813 0.9625 9.6 1.55 9 2C9.25 2.33125 9.5 2.66875 9.75 3C10.35 2.55 11.1312 1.96875 11.75 1.5Z" fill="black"/>
<path d="M1.5 3.625C0.8125 3.625 0.25 4.1875 0.25 4.875V6.125C0.25 6.8125 0.8125 7.375 1.5 7.375H2.125V9.875H3.375V7.375H4L7.125 9.25V1.75L4 3.625H1.5ZM4.64375 4.69375L5.875 3.95625V7.04375L4.64375 6.30625L4.34375 6.125H1.5V4.875H4.34375L4.64375 4.69375Z" fill="black"/>
<path d="M8.6875 5.5C8.6875 4.66875 8.325 3.91875 7.75 3.40625V7.5875C8.325 7.08125 8.6875 6.33125 8.6875 5.5Z" fill="black"/>
</g>
</svg>
