<svg width="14" height="14" viewBox="0 0 14 14" fill="none" xmlns="http://www.w3.org/2000/svg">
<g id="speech bubble">
<g id="Union">
<mask id="path-1-inside-1_188_1199" fill="white">
<path fill-rule="evenodd" clip-rule="evenodd" d="M7 13.125C10.866 13.125 14 10.3827 14 7C14 3.61726 10.866 0.875 7 0.875C3.13401 0.875 0 3.61726 0 7C0 8.52728 0.638849 9.924 1.69548 10.9967C1.57714 11.1968 1.33765 11.556 0.874977 12.25C0.249966 13.1875 1.85712 13.0089 3.46427 12.8304C3.81883 12.791 4.17339 12.7516 4.50398 12.7242C5.27928 12.9831 6.12071 13.125 7 13.125Z"/>
</mask>
<path d="M1.69548 10.9967L2.55617 11.5059L2.94807 10.8434L2.40791 10.295L1.69548 10.9967ZM0.874977 12.25L0.0429311 11.6953H0.042931L0.874977 12.25ZM3.46427 12.8304L3.35384 11.8365H3.35384L3.46427 12.8304ZM4.50398 12.7242L4.82082 11.7757L4.62602 11.7106L4.42135 11.7276L4.50398 12.7242ZM13 7C13 9.70921 10.4433 12.125 7 12.125V14.125C11.2887 14.125 15 11.0563 15 7H13ZM7 1.875C10.4433 1.875 13 4.29079 13 7H15C15 2.94372 11.2887 -0.125 7 -0.125V1.875ZM1 7C1 4.29079 3.55669 1.875 7 1.875V-0.125C2.71133 -0.125 -1 2.94372 -1 7H1ZM2.40791 10.295C1.51532 9.3888 1 8.23719 1 7H-1C-1 8.81737 -0.237623 10.4592 0.98305 11.6985L2.40791 10.295ZM1.70702 12.8047C2.15879 12.1271 2.42008 11.7359 2.55617 11.5059L0.834795 10.4876C0.734197 10.6576 0.516509 10.9849 0.0429311 11.6953L1.70702 12.8047ZM3.35384 11.8365C2.50181 11.9311 1.82387 12.0012 1.42787 11.9633C1.3405 11.9549 1.31401 11.9446 1.32625 11.9489C1.33117 11.9506 1.45862 11.9933 1.57738 12.145C1.91994 12.5827 1.59781 12.9685 1.70702 12.8047L0.042931 11.6953C-0.160366 12.0002 -0.515977 12.7153 0.00236521 13.3776C0.209009 13.6417 0.476669 13.7705 0.665392 13.8365C0.861434 13.9052 1.06235 13.9374 1.23725 13.9542C1.89037 14.0167 2.81958 13.9081 3.5747 13.8242L3.35384 11.8365ZM4.42135 11.7276C4.07428 11.7564 3.70534 11.7974 3.35384 11.8365L3.5747 13.8242C3.93232 13.7845 4.2725 13.7468 4.58662 13.7207L4.42135 11.7276ZM7 12.125C6.22841 12.125 5.49397 12.0005 4.82082 11.7757L4.18715 13.6726C5.06459 13.9657 6.01301 14.125 7 14.125V12.125Z" fill="black" mask="url(#path-1-inside-1_188_1199)"/>
</g>
<g id="Vector">
<path d="M4.8125 6.78125C4.8125 7.14369 4.51869 7.4375 4.15625 7.4375C3.79381 7.4375 3.5 7.14369 3.5 6.78125C3.5 6.41881 3.79381 6.125 4.15625 6.125C4.51869 6.125 4.8125 6.41881 4.8125 6.78125Z" fill="black"/>
<path d="M7.4375 6.78125C7.4375 7.14369 7.14369 7.4375 6.78125 7.4375C6.41881 7.4375 6.125 7.14369 6.125 6.78125C6.125 6.41881 6.41881 6.125 6.78125 6.125C7.14369 6.125 7.4375 6.41881 7.4375 6.78125Z" fill="black"/>
<path d="M10.0625 6.78125C10.0625 7.14369 9.76869 7.4375 9.40625 7.4375C9.04381 7.4375 8.75 7.14369 8.75 6.78125C8.75 6.41881 9.04381 6.125 9.40625 6.125C9.76869 6.125 10.0625 6.41881 10.0625 6.78125Z" fill="black"/>
</g>
</g>
</svg>
